<?xml version="1.0" ?><svg width="90px" height="90px" data-name="Layer 3" id="Layer_3" viewBox="0 0 1000 1000" xmlns="http://www.w3.org/2000/svg"><title/><path d="M495.1111,416.29h9.7778a12.7823,12.7823,0,0,0,12.767-12.768,1.7653,1.7653,0,0,0-3.5306,0,9.2472,9.2472,0,0,1-9.2364,9.2374h-9.7778a9.2472,9.2472,0,0,1-9.2364-9.2374,1.7653,1.7653,0,0,0-3.5306,0A12.7823,12.7823,0,0,0,495.1111,416.29Z"/><path d="M425.3566,340.97c-4.4848,0-8.12,5.8769-8.12,13.1265s3.6352,13.1263,8.12,13.1263,8.12-5.8769,8.12-13.1263S429.8409,340.97,425.3566,340.97Z"/><path d="M574.881,340.97c-4.4848,0-8.12,5.8769-8.12,13.1265s3.6353,13.1263,8.12,13.1263,8.12-5.8769,8.12-13.1263S579.3653,340.97,574.881,340.97Z"/><path d="M548.7759,328.4934c18.1028-16.987,46.9483-15.7553,64.3023,2.7389a1.7649,1.7649,0,0,0,2.5745-2.4147c-18.6851-19.9148-49.77-21.2157-69.2915-2.8987a1.7649,1.7649,0,1,0,2.4147,2.5745Z"/><path d="M543.5092,447.774a1.7656,1.7656,0,0,0-1.7653-1.7653H458.76a1.7656,1.7656,0,0,0-1.7653,1.7653,43.2575,43.2575,0,0,0,86.515,0Zm-82.3131,7.2644a39.6858,39.6858,0,0,1-.6334-5.4991h79.378a39.5857,39.5857,0,0,1-.5784,5.1725c-3.9381,2.7056-14.1311,6.7654-39.8662,6.7654C474.7781,461.4772,465.0217,457.7321,461.1961,455.0384Z"/><path d="M374.4255,611.0169c-114.2511,33.5893-197.6679,139.2183-197.6679,264.342v78.9284H823.2424V875.3589c0-122.6038-80.0941-226.3317-190.8063-262.0551a247.8526,247.8526,0,0,0-28.13-8.7444l-6.5632-3.7088a3.2559,3.2559,0,0,0,1.4017-2.683V565.1535l123.448-.009a7.656,7.656,0,0,0,7.6551-7.6559V481.47c0-32.0905-.445-64.516-4.9288-96.1112-2.13-15.0094-4.9809-29.6323-9.7062-43.5219-6.71-19.7216-12.9126-37.5367-16.1247-59.0014-3.32-22.1828-6.5457-44.5423-13.0626-65.4564l-.0335-.31C664.1189,12.33,506.4137,47.3824,500.0024,48.8943l-.1806-.0409c-8.6653-1.9985-164.155-34.95-186.2226,168.2993l.0248.1657c-6.5164,20.9141-9.7427,43.2734-13.0625,65.4562-3.2122,21.4647-9.4151,39.28-16.1243,59.0013-4.7253,13.89-7.5762,28.5125-9.7067,43.5219-4.4833,31.5952-4.9288,64.0207-4.9288,96.1113v76.089a7.6561,7.6561,0,0,0,7.6561,7.6559H400.91v33.0542a3.2559,3.2559,0,0,0,1.403,2.684l-6.5767,3.7862Q384.9361,607.37,374.4255,611.0169Zm18.6047,339.8H348.0069L312.2175,715.6739l61.2012-100.6783q9.6687-3.4458,19.6115-6.0714ZM607.4727,608.9227q9.9331,2.6256,19.61,6.07l61.2026,100.6815L652.496,950.8168H607.4727ZM589.87,563.6613c-24.055,14.2178-55.4788,22.8337-89.8723,22.8337-34.5075,0-66.0209-8.6763-90.1061-22.9778V534.0011a170.6291,170.6291,0,0,0,180.1761.0251ZM670.9942,388.74V312.8348H673.63A30.3353,30.3353,0,0,1,703.9652,343.17v18.8567a32.4888,32.4888,0,0,1-32.4886,32.489h-.59C670.95,392.5973,670.9942,390.674,670.9942,388.74Zm-342.3248,5.7754a32.4891,32.4891,0,0,1-32.489-32.489V343.17a30.3353,30.3353,0,0,1,30.3352-30.3352h2.49V388.74c0,1.9337.0443,3.857.1081,5.7754Zm3.867-5.7754V313.98c35.174,25.23,83.838,26.4342,144.6433-10.7476,53.72-32.8495,105.9216-38.6488,106.0112-83.3761,0,0,13.76,69.6216,84.2727,92.3949V388.74c0,92.34-75.1239,167.4635-167.4636,167.4635S332.5364,481.08,332.5364,388.74Z"/></svg>